<svg width="121" height="32" viewBox="0 0 121 32" fill="none" xmlns="http://www.w3.org/2000/svg">
<g id="Group 67">
<g id="Irongym">
<path d="M0 31.6425V0.35754H4.9162V31.6425H0Z" fill="white"/>
<path d="M23.7957 31.6425H18.7902C18.522 30.838 18.3432 30.3464 18.3432 27.7989V22.8827C18.3432 19.9777 17.36 18.905 15.1253 18.905H13.427V31.6425H8.51082V0.35754H15.9298C21.0248 0.35754 23.2147 2.72626 23.2147 7.55307V10.0112C23.2147 13.229 22.1868 15.3296 19.9969 16.3575C22.455 17.3855 23.2594 19.7542 23.2594 23.0168V27.8436C23.2594 29.3631 23.3041 30.4804 23.7957 31.6425ZM15.7957 4.82681H13.427V14.4358H15.3488C17.1812 14.4358 18.2985 13.6313 18.2985 11.1285V8.04469C18.2985 5.81006 17.5388 4.82681 15.7957 4.82681Z" fill="white"/>
<path d="M31.0066 7.55307V24.4469C31.0066 26.6816 31.9899 27.5307 33.5541 27.5307C35.1184 27.5307 36.1016 26.6816 36.1016 24.4469V7.55307C36.1016 5.31843 35.1184 4.46927 33.5541 4.46927C31.9899 4.46927 31.0066 5.31843 31.0066 7.55307ZM26.0904 24.1341V7.86592C26.0904 2.86033 28.7273 0 33.5541 0C38.3809 0 41.0178 2.86033 41.0178 7.86592V24.1341C41.0178 29.1397 38.3809 32 33.5541 32C28.7273 32 26.0904 29.1397 26.0904 24.1341Z" fill="white"/>
<path d="M54.7154 31.6425L48.5925 8.98324V31.6425H44.1679V0.35754H50.3355L55.3858 19.0838V0.35754H59.7657V31.6425H54.7154Z" fill="white"/>
</g>
<g id="Irongym_2">
<path d="M72.5423 18.6816V14.2123H79.425V24.1341C79.425 29.1397 76.9222 32 72.0954 32C67.2685 32 64.7657 29.1397 64.7657 24.1341V7.86592C64.7657 2.86033 67.2685 0 72.0954 0C76.9222 0 79.425 2.86033 79.425 7.86592V10.905H74.7769V7.55307C74.7769 5.31843 73.7937 4.46927 72.2294 4.46927C70.6652 4.46927 69.6819 5.31843 69.6819 7.55307V24.4469C69.6819 26.6816 70.6652 27.486 72.2294 27.486C73.7937 27.486 74.7769 26.6816 74.7769 24.4469V18.6816H72.5423Z" fill="#FF0000"/>
<path d="M86.5311 31.6425V21.2737L80.3188 0.35754H85.4585L89.2127 14.6145L92.9669 0.35754H97.6596L91.4473 21.2737V31.6425H86.5311Z" fill="#FF0000"/>
<path d="M106.441 0.35754L110.061 22.5698L113.413 0.35754H120.251V31.6425H115.603V9.2067L112.206 31.6425H107.558L103.894 9.51955V31.6425H99.603V0.35754H106.441Z" fill="#FF0000"/>
</g>
</g>
</svg>
