<svg width="129" height="24" viewBox="0 0 129 24" fill="none" xmlns="http://www.w3.org/2000/svg">
<g id="Group 68">
<path id="Star 31" d="M12.5 0L15.1942 8.2918H23.9127L16.8593 13.4164L19.5534 21.7082L12.5 16.5836L5.44658 21.7082L8.14074 13.4164L1.08732 8.2918H9.80583L12.5 0Z" fill="#FCA600"/>
<path id="Star 32" d="M38.5 0L41.1942 8.2918H49.9127L42.8593 13.4164L45.5534 21.7082L38.5 16.5836L31.4466 21.7082L34.1407 13.4164L27.0873 8.2918H35.8058L38.5 0Z" fill="#FCA600"/>
<path id="Star 33" d="M64.5 0L67.1942 8.2918H75.9127L68.8593 13.4164L71.5534 21.7082L64.5 16.5836L57.4466 21.7082L60.1407 13.4164L53.0873 8.2918H61.8058L64.5 0Z" fill="#FCA600"/>
<path id="Star 34" d="M90.5 0L93.1942 8.2918H101.913L94.8593 13.4164L97.5534 21.7082L90.5 16.5836L83.4466 21.7082L86.1407 13.4164L79.0873 8.2918H87.8058L90.5 0Z" fill="#FCA600"/>
<path id="Star 35" d="M116.5 0L119.194 8.2918H127.913L120.859 13.4164L123.553 21.7082L116.5 16.5836L109.447 21.7082L112.141 13.4164L105.087 8.2918H113.806L116.5 0Z" fill="#FCA600"/>
</g>
</svg>
